
<?xml version="1.0" encoding="utf-8"?>
<!-- Generator: Adobe Illustrator 25.2.0, SVG Export Plug-In . SVG Version: 6.00 Build 0)  -->
<svg version="1.1" id="Layer_1" xmlns="http://www.w3.org/2000/svg" xmlns:xlink="http://www.w3.org/1999/xlink" x="0px" y="0px"
	 viewBox="0 0 200 200" style="enable-background:new 0 0 200 200;" xml:space="preserve">
<style type="text/css">
	.st0{fill:url(#SVGID_1_);}
	.st1{fill:#00375F;}
	.st2{fill:#FF920A;}
	.st3{opacity:0.6;}
	.st4{fill:#FFFFFF;}
	.st5{fill:#91B3FA;}
	.st6{fill:url(#SVGID_2_);}
	.st7{opacity:0.78;fill:#FFFFFF;}
	.st8{fill:url(#SVGID_3_);}
	.st9{fill:url(#SVGID_4_);}
	.st10{fill:url(#SVGID_5_);}
	.st11{fill:url(#SVGID_6_);}
</style>
<g>
	<linearGradient id="SVGID_1_" gradientUnits="userSpaceOnUse" x1="226.6196" y1="213.5853" x2="72.5669" y2="75.3909">
		<stop  offset="0" style="stop-color:#DAE3FE"/>
		<stop  offset="1" style="stop-color:#E9EFFD"/>
	</linearGradient>
	<circle class="st0" cx="100" cy="100" r="100"/>
	<path class="st1" d="M17.8,164.6c0,1.6,1.3,3,3,3h161.7c1.6,0,3-1.3,3-3l1.3-92.9c0-1.6-1.9-4.9-5.5-4.6L23.3,63
		c-2.1-0.1-4.1,0.7-5.5,2.2c-1.5,1.5-2.3,3.4-2.2,5.5L17.8,164.6z"/>
	<path class="st2" d="M20.7,161.8c0,1.6,1.3,2.8,2.8,2.8h155c1.6,0,2.8-1.3,2.8-2.8l1.3-84.4c-0.1-5.1-4.6-6.9-7.3-6.8L23.9,66.6
		c-1.4,0-2.9,0.5-3.9,1.5c-1,1-1.6,2.4-1.6,3.9L20.7,161.8z"/>
	<g class="st3">
		<path class="st4" d="M179.8,121.7C179.8,121.7,179.7,121.7,179.8,121.7c-0.2,0-0.4-0.2-0.4-0.4l0.1-6.8c0-0.2,0.2-0.4,0.4-0.4
			c0,0,0,0,0,0c0.2,0,0.4,0.2,0.4,0.4l-0.1,6.8C180.2,121.5,180,121.7,179.8,121.7z"/>
		<path class="st4" d="M180,104.9C180,104.9,180,104.9,180,104.9c-0.2,0-0.4-0.2-0.4-0.4l0.4-26.2c0-1.6-0.5-2.8-1.4-3.7
			c-1.7-1.7-4.5-1.6-4.6-1.6l-48.4-1.3c-0.2,0-0.4-0.2-0.4-0.4c0-0.2,0.2-0.4,0.4-0.4l48.4,1.3c0.3,0,3.2-0.1,5.2,1.8
			c1.1,1,1.7,2.5,1.7,4.3l-0.4,26.2C180.4,104.8,180.2,104.9,180,104.9z"/>
	</g>
	<path class="st1" d="M5,175.4H195c0.2,0,0.4-0.2,0.4-0.4v-7.4c0-0.2-0.2-0.4-0.4-0.4H5c-0.2,0-0.4,0.2-0.4,0.4v7.4
		C4.7,175.2,4.8,175.4,5,175.4z"/>
	<path class="st5" d="M124,22.8l-96-0.6c-3.2,0-5.7,2.6-5.5,5.8l6.6,136.3h106.8l5.9-121.8L124,22.8z"/>
	<linearGradient id="SVGID_2_" gradientUnits="userSpaceOnUse" x1="150.4842" y1="13.6115" x2="190.6406" y2="-29.6605">
		<stop  offset="0" style="stop-color:#4F52FF"/>
		<stop  offset="1" style="stop-color:#4042E2"/>
	</linearGradient>
	<path class="st6" d="M128,41.9c-3.1-0.1-5.5-2.8-5.3-5.9l1-13l18.1,19.4L128,41.9z"/>
	<g>
		<g>
			<path class="st7" d="M73.2,48.8c8.6,0,41.7-0.1,50-0.1c1.1,0,1.9,1,1.8,2.2l0,0c0,1.2-0.9,2.1-1.9,2.1l-50,0.4
				c-1,0-1.8-0.8-1.9-1.9l0-0.3C71.2,49.9,72.1,48.8,73.2,48.8z"/>
		</g>
		<g>
			<path class="st7" d="M72.8,58.3c8.6,0,41.7-0.1,50-0.1c1.1,0,1.9,1,1.8,2.2l0,0c0,1.2-0.9,2.1-1.9,2.1l-50,0.4
				c-1,0-1.8-0.8-1.9-1.9l0-0.3C70.8,59.4,71.7,58.3,72.8,58.3z"/>
		</g>
		<g>
			<path class="st7" d="M42.9,72c13.3,0,64.4,0,77.3,0c1.6,0,2.9,1,2.9,2.2l0,0c0,1.2-1.3,2.1-2.8,2.1L43,76.6
				c-1.5,0-2.8-0.8-2.9-1.9l0-0.3C39.9,73.1,41.2,72,42.9,72z"/>
		</g>
		<g>
			<path class="st7" d="M42.3,82c10.4,0,50.1-0.3,60.1-0.3c1.3,0,2.3,1,2.3,2.2l0,0c0,1.2-1,2.1-2.2,2.1l-60.1,0.6
				c-1.2,0-2.1-0.8-2.3-1.9l0-0.3C39.9,83.1,41,82,42.3,82z"/>
		</g>
		<g>
			<path class="st7" d="M42.8,95.2c13.3,0,64.4,0,77.3,0c1.6,0,2.9,1,2.9,2.2l0,0c0,1.2-1.3,2.1-2.8,2.1l-77.2,0.3
				c-1.5,0-2.8-0.8-2.9-1.9l0-0.3C39.8,96.2,41.1,95.2,42.8,95.2z"/>
		</g>
		<g>
			<path class="st7" d="M41.6,105.4c10.4,0,50.3,0,60.4,0c1.3,0,2.3,1,2.3,2.2l0,0c0,1.2-1,2.1-2.2,2.1l-60.4,0.2
				c-1.2,0-2.1-0.8-2.3-1.9l0-0.3C39.2,106.4,40.3,105.4,41.6,105.4z"/>
		</g>
		<g>
			<path class="st7" d="M42.1,118.8c13.3,0,64.4,0,77.3,0c1.6,0,2.9,1,2.9,2.2l0,0c0,1.2-1.3,2.1-2.8,2.1l-77.2,0.3
				c-1.5,0-2.8-0.8-2.9-1.9l0-0.3C39.1,119.9,40.4,118.8,42.1,118.8z"/>
		</g>
		<g>
			<path class="st7" d="M41.3,128.9c10.4,0,50.3,0,60.4,0c1.3,0,2.3,1,2.3,2.2l0,0c0,1.2-1,2.1-2.2,2.1l-60.4,0.2
				c-1.2,0-2.1-0.8-2.3-1.9l0-0.3C38.9,130,40,128.9,41.3,128.9z"/>
		</g>
		<path class="st7" d="M42.9,142.2c13.3,0,64.4,0,77.3,0c1.6,0,2.9,1,2.9,2.2l0,0c0,1.2-1.3,2.1-2.8,2.1L43,146.8
			c-1.5,0-2.8-0.8-2.9-1.9l0-0.3C39.9,143.3,41.2,142.2,42.9,142.2z"/>
		<path class="st7" d="M42.1,153.4c10.3,0,49.7-0.1,59.7-0.1c1.3,0,2.3,1,2.2,2.2l0,0c0,1.2-1,2.1-2.2,2.1l-59.6,0.3
			c-1.1,0-2.1-0.8-2.2-1.9l0-0.3C39.8,154.5,40.8,153.4,42.1,153.4z"/>
	</g>
	
		<linearGradient id="SVGID_3_" gradientUnits="userSpaceOnUse" x1="-3545.9277" y1="101.8687" x2="-3542.1741" y2="101.8687" gradientTransform="matrix(-1 0 0 1 -3426.9888 0)">
		<stop  offset="0" style="stop-color:#FEBBBA"/>
		<stop  offset="1" style="stop-color:#FF928E"/>
	</linearGradient>
	<path class="st8" d="M118.4,103.7c-0.4,0.3-1.8-0.4-2.7-0.8c-0.4-0.2-0.6-0.7-0.5-1.2c0.2-0.7,0.6-1.5,1-1.6
		C116.9,99.8,120.2,102.3,118.4,103.7z"/>
	<path class="st1" d="M192.4,116.5L83.3,77.7l-5.8,16l109.1,39.9c2.3,0.8,4.9-0.1,6.1-2.2c1.3-2.2,2.5-5.6,2.6-10.7
		C195.4,118.8,194.2,117.1,192.4,116.5z"/>
	<path class="st1" d="M49.5,73.5l15.1,1.9c0,2.1-0.7,4.8-3,7.8L49,74.9C48.3,74.5,48.7,73.4,49.5,73.5z"/>
	
		<linearGradient id="SVGID_4_" gradientUnits="userSpaceOnUse" x1="-3483.9209" y1="64.5005" x2="-3561.134" y2="143.8526" gradientTransform="matrix(-1 0 0 1 -3426.9888 0)">
		<stop  offset="0" style="stop-color:#FF928E"/>
		<stop  offset="1" style="stop-color:#FE7062"/>
	</linearGradient>
	<path class="st9" d="M83.3,77.7c0.7,10.1-5.8,16-5.8,16L61.6,83.2c2.3-3.1,3-5.8,3-7.8L83.3,77.7z"/>
	
		<linearGradient id="SVGID_5_" gradientUnits="userSpaceOnUse" x1="-3531.0071" y1="66.8169" x2="-3600.6897" y2="138.4299" gradientTransform="matrix(-1 0 0 1 -3426.9888 0)">
		<stop  offset="0" style="stop-color:#4F52FF"/>
		<stop  offset="1" style="stop-color:#4042E2"/>
	</linearGradient>
	<path class="st10" d="M191.1,121.4c0.1,0,0.3-0.1,0.3-0.2c0.1-0.2,0-0.4-0.2-0.4L86.8,83.9c-0.2-0.1-0.4,0-0.4,0.2
		c-0.1,0.2,0,0.4,0.2,0.4L191,121.4C191,121.4,191,121.4,191.1,121.4z"/>
	
		<linearGradient id="SVGID_6_" gradientUnits="userSpaceOnUse" x1="-3529.2056" y1="73.1102" x2="-3598.8882" y2="144.7233" gradientTransform="matrix(-1 0 0 1 -3426.9888 0)">
		<stop  offset="0" style="stop-color:#4F52FF"/>
		<stop  offset="1" style="stop-color:#4042E2"/>
	</linearGradient>
	<path class="st11" d="M189.3,127.7c0.1,0,0.3-0.1,0.3-0.2c0.1-0.2,0-0.4-0.2-0.4L84.9,90.2c-0.2-0.1-0.4,0-0.4,0.2
		c-0.1,0.2,0,0.4,0.2,0.4l104.4,36.9C189.2,127.7,189.2,127.7,189.3,127.7z"/>
</g>
</svg>
